PathFileType	4	(X/Y/Z)	C:\Users\Basilio\Documents\Thesis Gigler\squatting_fais\c3dfiles\038\SLS_front_pre4\markers_experimental.trc
DataRate	CameraRate	NumFrames	NumMarkers	Units	OrigDataRate	OrigDataStartFrame	OrigNumFrames
200.000000	200.000000	4	61	mm	200.000000	0	1408
Frame#	Time	FHD			LBHD			RBHD			C7			T10			CLAV			LSHO			LUUPA			LMUPA			LDUPA			LLEP			LMEP			LRAD			LUL			LRFIN			RSHO			RUPA1			RMUPA			RDUPA			RLEP			RMEP			RRAD			RUL			RUFIN			LASI			RASI			USACR			LSACR			RSACR			LTHI1			LTHI2			LTHI3			LTHI4			LLFC			LMFC			LTIB1			LTIB2			LTIB3			LTIB4			LLMAL			LMMAL			LHEE			LMT1			LMT2			LMT5			RTHI			RTHI2			RTHI3			RTHI4			RLFC			RMFC			RTIB1			RTIB2			RTIB3			RTIB4			RLMAL			RMMAL			RHEE			RMT1			RMT2			RMT5			
		X1	Y1	Z1	X2	Y2	Z2	X3	Y3	Z3	X4	Y4	Z4	X5	Y5	Z5	X6	Y6	Z6	X7	Y7	Z7	X8	Y8	Z8	X9	Y9	Z9	X10	Y10	Z10	X11	Y11	Z11	X12	Y12	Z12	X13	Y13	Z13	X14	Y14	Z14	X15	Y15	Z15	X16	Y16	Z16	X17	Y17	Z17	X18	Y18	Z18	X19	Y19	Z19	X20	Y20	Z20	X21	Y21	Z21	X22	Y22	Z22	X23	Y23	Z23	X24	Y24	Z24	X25	Y25	Z25	X26	Y26	Z26	X27	Y27	Z27	X28	Y28	Z28	X29	Y29	Z29	X30	Y30	Z30	X31	Y31	Z31	X32	Y32	Z32	X33	Y33	Z33	X34	Y34	Z34	X35	Y35	Z35	X36	Y36	Z36	X37	Y37	Z37	X38	Y38	Z38	X39	Y39	Z39	X40	Y40	Z40	X41	Y41	Z41	X42	Y42	Z42	X43	Y43	Z43	X44	Y44	Z44	X45	Y45	Z45	X46	Y46	Z46	X47	Y47	Z47	X48	Y48	Z48	X49	Y49	Z49	X50	Y50	Z50	X51	Y51	Z51	X52	Y52	Z52	X53	Y53	Z53	X54	Y54	Z54	X55	Y55	Z55	X56	Y56	Z56	X57	Y57	Z57	X58	Y58	Z58	X59	Y59	Z59	X60	Y60	Z60	X61	Y61	Z61	

1	0	-234.7815856933594	1772.795166015625	-981.1978149414065	-387.6799316406251	1714.822509765625	-1043.926147460938	-380.3066101074219	1701.41015625	-899.0615844726565	-421.8308105468751	1522.552001953125	-970.707946777344	-364.3044738769532	1246.72705078125	-960.997497558594	-277.3688964843751	1523.763671875	-981.0801391601565	-343.2657165527344	1548.30419921875	-1124.989868164063	-170.682846069336	1491.005249023438	-1248.030517578125	-145.2035675048828	1526.266479492188	-1220.446655273438	-101.5646057128907	1500.847900390625	-1252.759765625	-40.3939323425293	1505.401733398438	-1251.1259765625	-29.69323730468751	1432.3740234375	-1226.882202148438	243.6701965332032	1503.717651367188	-1141.442260742188	253.4847412109376	1524.201049804688	-1210.81005859375	313.5849914550782	1538.053955078125	-1118.224365234375	-328.3467407226563	1541.656127929688	-833.6416625976565	-171.0299682617188	1507.233764648438	-711.1284179687501	-134.8768463134766	1522.315185546875	-740.5352783203126	-103.8461990356446	1504.280639648438	-691.3352050781251	-30.58229446411134	1504.931884765625	-679.0820922851564	-21.74203872680664	1427.167236328125	-698.0753784179689	244.8468475341797	1508.900146484375	-767.2586669921876	255.6736450195313	1525.285278320313	-699.2797241210939	324.7698059082032	1544.531127929688	-775.0612792968752	-179.5530242919922	1075.878051757813	-1081.85546875	-181.9949951171875	1086.676025390625	-826.0220947265627	-351.3090820312501	1122.178833007813	-957.1791992187502	-363.6772155761719	1093.17431640625	-984.128845214844	-366.1101379394532	1093.777465820313	-929.488708496094	-249.1691589355469	753.8117065429689	-1131.474243164063	-228.0736083984376	671.8810424804689	-1125.237670898438	-180.6020660400391	671.8359985351564	-1107.152465820313	-260.7880859375001	625.9017333984376	-1105.4306640625	-263.6740112304688	562.6193237304689	-1099.65576171875	-245.7854156494141	549.5185546875001	-980.5965576171877	-244.7118377685547	369.0696716308594	-1038.99072265625	-293.9707946777344	333.8897094726563	-1104.617431640625	-259.0844421386719	324.6948852539063	-1077.158325195313	-275.2832641601563	246.3305206298829	-1052.12451171875	-368.2236633300782	116.5854721069336	-1073.526000976563	-326.7476806640626	129.7107391357422	-1004.745178222656	-416.7381591796876	95.33065032958986	-1017.548767089844	-216.3912658691407	48.43114089965822	-1019.31396484375	-210.6497650146485	45.22593307495118	-1070.259033203125	-257.1894226074219	31.36080551147462	-1114.540283203125	-256.7989501953126	814.4002075195315	-774.8653564453127	-227.9529266357422	753.7941284179689	-769.1382446289065	-195.8496551513672	750.6086425781251	-773.2752685546877	-268.3350830078126	678.7905883789064	-786.429626464844	-272.6323242187501	540.7580566406251	-792.4638671875002	-273.3306274414063	538.1898803710939	-914.0747070312502	-240.6097869873047	363.2502746582032	-817.0013427734377	-318.7122497558594	287.5082397460938	-776.0801391601565	-273.1876831054688	287.9673156738282	-787.8298950195315	-267.0654907226563	236.4669952392579	-817.2595825195315	-335.7453308105469	118.3961029052735	-784.8798828125002	-308.9240417480469	123.3106765747071	-864.3342895507815	-398.2022094726564	83.70736694335939	-843.8384399414065	-184.1475524902344	49.46828460693361	-842.9461059570315	-185.2479553222657	48.4485321044922	-795.948425292969	-228.523910522461	34.31341552734376	-750.6184082031251	
2	0.005	-234.8087921142579	1772.781005859375	-981.1732177734377	-387.6756286621095	1714.789428710938	-1043.920654296875	-380.3107299804688	1701.394165039063	-899.0579223632815	-421.8494567871095	1522.552612304688	-970.7393798828127	-364.2986450195313	1246.669555664063	-961.015075683594	-277.4363708496094	1523.75244140625	-981.069763183594	-343.2562561035157	1548.302978515625	-1125.000244140625	-170.7434234619141	1490.985107421875	-1248.043579101563	-145.2227020263672	1526.259155273438	-1220.487548828125	-101.61962890625	1500.819458007813	-1252.785278320313	-40.40230941772462	1505.37841796875	-1251.163452148438	-29.74853134155274	1432.373168945313	-1226.911254882813	243.7272033691407	1503.7158203125	-1141.371459960938	253.4594268798829	1524.241821289063	-1210.851928710938	313.5289916992188	1538.129028320313	-1118.264282226563	-328.3883666992188	1541.673217773438	-833.6441650390627	-171.1004791259766	1507.215087890625	-711.1389770507814	-134.9494323730469	1522.315673828125	-740.5415649414064	-103.8685073852539	1504.26025390625	-691.3578491210939	-30.60778999328614	1504.932495117188	-679.1539916992189	-21.77606582641602	1427.1689453125	-698.0599365234376	244.9264831542969	1508.880249023438	-767.3047485351564	255.6241302490235	1525.261108398438	-699.3081054687501	324.7524414062501	1544.4765625	-775.0784912109377	-179.5893249511719	1075.871948242188	-1081.829956054688	-181.9710998535157	1086.678588867188	-826.0186157226565	-351.3186035156251	1122.173217773438	-957.2457275390627	-363.6922912597657	1093.18115234375	-984.1069946289065	-366.0575256347657	1093.76416015625	-929.553161621094	-249.132308959961	753.7943115234376	-1131.5166015625	-228.0836029052735	671.8843383789064	-1125.257202148438	-180.6462554931641	671.8292236328126	-1107.159912109375	-260.8255004882813	625.8854980468751	-1105.435424804688	-263.6907958984376	562.6202392578126	-1099.677124023438	-245.8139648437501	549.5417480468751	-980.5947265625002	-244.7373046875001	369.0635375976563	-1038.957397460938	-294.0122680664063	333.8648681640626	-1104.651977539063	-259.0094604492188	324.1756896972657	-1076.891357421875	-275.6502075195313	245.4724273681641	-1052.480346679688	-368.2414245605469	116.5697479248047	-1073.526245117188	-326.7450256347657	129.7085266113282	-1004.75927734375	-416.8159484863282	95.32398986816408	-1017.500915527344	-216.3681182861329	48.48863220214845	-1019.329040527344	-210.6471862792969	45.23936462402344	-1070.245971679688	-257.2432861328126	31.36371040344239	-1114.545166015625	-256.8243408203126	814.389343261719	-774.8560791015627	-227.8805847167969	753.7839965820314	-769.1775512695315	-195.8559722900391	750.6283569335939	-773.271423339844	-268.3184204101563	678.7819213867189	-786.4783325195315	-272.6425170898438	540.7545166015626	-792.490417480469	-273.3663940429688	538.1931152343751	-914.0866699218752	-240.7030792236329	362.6803894042969	-817.2847900390627	-318.6951599121094	287.5281066894532	-776.0809326171877	-273.1786499023438	287.9922790527344	-787.8375244140627	-267.0628662109376	236.4561004638672	-817.2656860351565	-335.7576293945313	118.4351882934571	-784.889587402344	-308.8860473632813	123.3281173706055	-864.3261718750002	-398.1848144531251	83.67630004882814	-843.881286621094	-184.1366271972657	49.4655227661133	-842.9436035156252	-185.2722320556641	48.41092681884767	-795.9448242187502	-228.5361633300782	34.29764556884766	-750.6140747070314	
3	0.01	-234.8235778808594	1772.7802734375	-981.211364746094	-387.4375000000001	1715.271240234375	-1043.94775390625	-380.3684692382813	1701.382934570313	-899.061462402344	-421.8916625976564	1522.519409179688	-970.7727661132815	-364.3051757812501	1246.727661132813	-961.0279541015627	-277.4291687011719	1523.755004882813	-981.0980224609377	-343.2882385253907	1548.296997070313	-1125.005249023438	-170.7530670166016	1490.981689453125	-1248.136962890625	-145.2581176757813	1526.215454101563	-1220.516235351563	-101.588493347168	1500.804931640625	-1252.873657226563	-40.48880767822266	1505.383544921875	-1251.233642578125	-29.73687553405762	1432.377563476563	-1227.009155273438	243.7116241455079	1503.7724609375	-1141.380981445313	253.4175872802735	1524.24951171875	-1210.88671875	313.5049133300782	1538.129516601563	-1118.300170898438	-328.4156188964844	1541.616577148438	-833.674987792969	-171.0855712890625	1507.162841796875	-711.1556396484376	-134.9490509033203	1522.290649414063	-740.5341186523439	-103.9002304077149	1504.226440429688	-691.3294067382814	-30.65216827392579	1504.89306640625	-679.1757812500001	-21.81962203979493	1427.1533203125	-698.0994873046876	244.8459167480469	1508.884643554688	-767.2930908203126	255.6191101074219	1525.21875	-699.3433227539064	324.7200012207032	1544.435424804688	-775.0769042968752	-179.5115051269532	1075.887817382813	-1081.875610351563	-182.0093688964844	1086.673095703125	-826.035827636719	-351.2698059082032	1122.161010742188	-957.249450683594	-363.7175903320313	1093.245483398438	-984.1082153320315	-366.0907592773438	1093.775756835938	-929.6206665039065	-249.1457824707032	753.7756958007814	-1131.508422851563	-228.0682067871094	671.8482055664064	-1125.245849609375	-180.0580139160157	671.2646484375001	-1107.193237304688	-260.8292846679688	625.8964233398439	-1105.460693359375	-263.7055969238282	562.6378173828126	-1099.675048828125	-245.8638000488282	549.5314331054689	-980.635192871094	-244.7143707275391	369.0933837890626	-1039.011962890625	-294.0199890136719	333.8890075683594	-1104.63525390625	-259.1007690429688	324.7157287597657	-1077.158447265625	-275.2832641601563	246.3305206298829	-1052.12451171875	-368.2159729003907	116.5684890747071	-1073.531127929688	-326.7283935546876	129.7102508544922	-1004.750427246094	-416.7827758789064	95.27759552001955	-1017.475402832031	-216.4266357421876	48.49023818969728	-1019.312316894531	-210.6491851806641	45.22111892700196	-1070.2392578125	-257.2164611816407	31.37062644958497	-1114.552490234375	-256.7966918945313	814.3863525390627	-774.8657226562502	-228.5137481689454	752.9668579101564	-769.9519653320315	-195.9149475097657	750.5377197265626	-773.4268188476565	-268.3262634277344	678.7676391601564	-786.4783325195315	-272.2611389160157	541.0772705078126	-792.288757324219	-273.3663330078126	538.1930541992189	-914.0866699218752	-240.6143188476563	363.2413024902344	-817.0159912109377	-318.7354125976563	287.5442199707032	-776.1114501953127	-273.1491394042969	288.0092163085938	-787.8421630859377	-267.0472412109376	236.4608306884766	-817.2430419921877	-335.7307434082032	118.4027175903321	-784.854187011719	-308.8889465332032	123.3278732299805	-864.3323364257815	-398.1943664550782	83.69651031494142	-843.882995605469	-184.0382843017578	48.7855567932129	-842.764587402344	-185.2526550292969	47.89790725708009	-795.8942871093752	-228.5114135742188	34.31431961059571	-750.6437988281251	
4	0.015	-234.8254394531251	1772.767944335938	-981.2343750000002	-387.4907836914064	1715.32275390625	-1043.944946289063	-380.4010620117188	1701.362915039063	-899.1006469726565	-421.910369873047	1522.52001953125	-970.8042602539065	-364.3019714355469	1246.698608398438	-961.0215454101565	-277.4590454101563	1523.751708984375	-981.118591308594	-343.3023376464844	1548.2734375	-1125.07470703125	-170.7854614257813	1490.952514648438	-1248.156982421875	-145.3050079345703	1526.239624023438	-1220.58251953125	-101.6513137817383	1500.813232421875	-1252.9296875	-40.43468093872071	1505.383422851563	-1251.277099609375	-29.75783348083497	1432.360595703125	-1227.04345703125	243.7892150878907	1503.796508789063	-1141.448364257813	253.4513092041016	1524.268920898438	-1210.946166992188	313.4721374511719	1538.162719726563	-1118.336547851563	-328.4261474609376	1541.633056640625	-833.709167480469	-171.09814453125	1507.130493164063	-711.1335449218751	-135.0202178955078	1522.25341796875	-740.5114135742189	-103.9078750610352	1504.22998046875	-691.3490600585939	-30.68722152709962	1504.881469726563	-679.1635742187501	-21.87784957885743	1427.119262695313	-698.0994262695314	244.8132934570313	1508.811157226563	-767.2709350585939	255.6188964843751	1525.201293945313	-699.3444213867189	324.6902160644532	1544.396850585938	-775.0998535156252	-179.5342712402344	1075.884643554688	-1081.875610351563	-181.9458618164063	1086.67919921875	-826.0689697265627	-351.2698059082032	1122.161010742188	-957.249450683594	-363.7022399902344	1093.240966796875	-984.136901855469	-366.0895385742188	1093.776245117188	-929.6201782226565	-249.1189727783204	753.8054809570314	-1131.5185546875	-228.1444396972657	671.8678588867189	-1125.228271484375	-180.01708984375	671.2847900390626	-1107.19287109375	-260.8382873535157	625.8762207031251	-1105.451538085938	-263.7196350097657	562.5850830078126	-1099.66796875	-245.8638000488282	549.5314331054689	-980.635192871094	-244.7169494628907	369.0852966308594	-1038.98876953125	-294.0138854980469	333.9072875976563	-1104.618530273438	-259.0232543945313	324.2026062011719	-1076.905395507813	-275.6519775390626	245.4959564208985	-1052.474853515625	-368.2324218750001	116.560302734375	-1073.537841796875	-326.7457885742188	129.7155914306641	-1004.750122070313	-416.6990966796876	95.26954650878908	-1017.427307128906	-216.6378021240235	48.63145065307619	-1019.182434082031	-210.6421966552735	45.2445182800293	-1070.258178710938	-257.2074584960938	31.38374328613282	-1114.544921875	-256.7966918945313	814.3863525390627	-774.8657226562502	-228.5048522949219	752.9593505859376	-769.9903564453127	-195.9163208007813	750.5376586914064	-773.4276123046877	-268.3318786621094	678.7852172851564	-786.4558105468752	-272.6113281250001	540.7327270507814	-792.5102539062502	-273.3154296875001	538.2077636718751	-914.1267700195315	-240.7106323242188	362.6762390136719	-817.3289794921877	-318.6912841796876	287.5374755859376	-776.076599121094	-273.1786499023438	287.9922790527344	-787.8375244140627	-266.8356323242188	236.1033782958985	-817.3562622070315	-335.7603759765626	118.4259338378907	-784.872741699219	-308.8787231445313	123.3397445678711	-864.3248291015627	-398.2286071777345	83.70702362060548	-843.8862915039065	-184.0461578369141	48.78237915039064	-842.7476806640627	-185.2631988525391	47.88761901855469	-795.9019165039065	-228.5203094482422	34.29582595825196	-750.6378173828126	
